<svg width="20" height="20" viewBox="0 0 20 20" fill="none" xmlns="http://www.w3.org/2000/svg">
<path d="M6.8594 3.55671C7.05668 3.05664 7.21971 2.60609 7.41008 2.16734C7.90651 1.02309 9.27396 -0.135656 10.8976 0.0129175C11.6867 0.0849696 12.3114 0.476886 12.8673 0.997698C13.4281 1.52307 13.7514 2.19503 13.9965 2.9093C14.0374 3.02855 14.0749 3.14895 14.1263 3.30647C14.2727 3.31541 14.4234 3.32676 14.5747 3.3323C15.294 3.35858 16.0134 3.38084 16.7325 3.4107C16.8454 3.41416 16.9569 3.43646 17.0623 3.47661C17.3403 3.58827 17.4552 3.81693 17.3266 4.08797C17.2304 4.29194 17.2167 4.52501 17.2885 4.73874C18.0311 7.4609 18.4281 10.251 18.9285 13.021C19.1663 14.3368 19.4576 15.6428 19.7055 16.957C19.8252 17.5922 19.9112 18.2345 19.99 18.8764C20.0571 19.4239 19.7855 19.7699 19.2305 19.8487C18.8813 19.8988 18.5289 19.9246 18.1761 19.9259C13.4235 19.9341 8.67077 19.9395 3.91814 19.942C3.07083 19.9436 2.22378 19.995 1.37647 20C1.10822 19.9988 0.841607 19.9583 0.585204 19.8798C0.125364 19.7418 -0.0675178 19.4111 0.0208992 18.935C0.19307 18.0076 0.383348 17.0837 0.561527 16.1574C0.981551 13.9736 1.38274 11.7859 1.82393 9.60644C2.06399 8.42048 2.37138 7.24799 2.64632 6.06897C2.77105 5.53394 2.88701 4.99685 3.01327 4.46218C3.16167 3.83382 3.27224 3.76491 3.90219 3.7372C4.4934 3.71145 5.08245 3.63885 5.6733 3.60006C6.06597 3.57395 6.46027 3.57048 6.8594 3.55671ZM18.6272 18.5475C18.4804 17.9248 18.3441 17.3943 18.2312 16.8589C17.9378 15.4672 17.6204 14.0794 17.3754 12.679C16.9704 10.3637 16.6167 8.04029 16.2366 5.72103C16.1738 5.33539 16.0868 4.95357 16.0005 4.5167C15.4355 4.57436 14.9022 4.42097 14.3225 4.48095C14.3476 4.6955 14.3615 4.86143 14.3873 5.02574C14.4442 5.44836 14.3624 5.87797 14.1542 6.25042C14.1076 6.35544 14.0269 6.44181 13.9252 6.4956C13.8235 6.5494 13.7065 6.56749 13.5932 6.54702C13.4794 6.53353 13.3731 6.48338 13.2906 6.40415C13.208 6.32492 13.1536 6.22097 13.1359 6.10812C13.1202 6.03956 13.11 5.96956 13.1008 5.89974C13.0385 5.42926 12.9772 4.95857 12.9135 4.47405H7.83558C7.78868 4.87141 7.7459 5.24446 7.70017 5.61715C7.67327 5.83965 7.65461 6.06415 7.60789 6.28299C7.59364 6.37541 7.54776 6.46006 7.47804 6.52262C7.40832 6.58519 7.31904 6.6218 7.22535 6.62624C6.99175 6.64225 6.85769 6.49163 6.79573 6.28861C6.73493 6.10184 6.69514 5.9089 6.67709 5.71336C6.65736 5.43275 6.67664 5.14954 6.66992 4.86768C6.66008 4.75482 6.64319 4.64265 6.61935 4.53189C5.78163 4.53296 4.97834 4.47722 4.13309 4.65153C3.19924 9.34719 2.26431 14.0484 1.31863 18.8041C1.45646 18.8041 1.60639 18.81 1.75578 18.803C2.85615 18.7517 3.9559 18.6836 5.05672 18.6483C6.41301 18.6047 7.77003 18.57 9.12698 18.5629C12.1123 18.5474 15.0977 18.5517 18.0831 18.548C18.2493 18.5473 18.4156 18.5475 18.6272 18.5475ZM12.7458 3.3815C12.6345 2.7071 12.2889 2.09316 11.7694 1.6472C11.1981 1.18235 10.5706 1.10193 9.89969 1.34973C8.92231 1.71098 8.44059 2.48504 8.17103 3.46766L12.7458 3.3815Z" fill="black"/>
</svg>
