<svg width="20" height="20" viewBox="0 0 20 20" fill="none" xmlns="http://www.w3.org/2000/svg">
<path d="M0.353775 7.24789C-0.530039 10.8199 0.243899 13.9711 2.65569 16.6154C2.71844 16.6837 2.78247 16.752 2.84642 16.8178C4.142 18.15 5.7557 18.9725 7.03429 19.5449C7.58309 19.7914 10.399 20.0907 11.1609 19.974C15.6886 19.2787 18.6682 16.6527 19.706 12.2594C19.9041 11.3988 20.0028 10.5172 19.9999 9.63278C20.0048 7.54946 19.1518 5.12743 17.3926 3.31346C17.2115 3.15947 17.031 2.99995 16.8565 2.84535C16.478 2.51077 16.0868 2.16433 15.6775 1.86891C12.551 -0.39395 9.30239 -0.40659 6.02249 0.793361C3.05285 1.87865 1.14581 4.05082 0.353775 7.24789ZM6.03522 1.86258C8.91299 0.632784 11.8005 0.41576 14.6168 2.25765C15.1317 2.59478 16.5046 3.73574 16.7206 3.90711L16.7346 3.91763L16.746 3.93073C17.8448 5.12884 19.1029 7.31953 19.0751 9.5715C19.066 10.5344 18.9392 11.4924 18.6978 12.4228C17.9824 15.0966 16.2722 17.0452 13.4692 18.378C10.6197 19.781 6.53322 18.3626 5.44595 17.6246C4.24422 16.7797 3.1927 15.7286 2.33732 14.5173C0.995892 12.5644 0.694935 9.7571 1.41577 7.19083C1.75307 6.0059 2.34261 4.913 3.1416 3.99141C3.94059 3.06982 4.92902 2.34264 6.03522 1.86258Z" fill="black"/>
<g clip-path="url(#clip0_7_588)">
<path d="M7.30752 6.27903C7.49098 6.39511 7.60892 6.25877 7.69503 6.15907L7.7032 6.14955C7.96928 5.84207 8.3242 5.65402 8.85388 5.53961C9.66904 5.36387 10.3579 5.50151 10.9602 5.96061C11.7144 6.53563 12.116 7.74288 11.4496 8.69054C11.2711 8.93725 11.0596 9.15647 10.8214 9.34161C10.5215 9.58053 10.2021 9.80537 9.89331 10.0228C9.77119 10.1089 9.64902 10.1948 9.52771 10.2819C9.02115 10.6321 8.66421 11.1701 8.53061 11.7846C8.47191 12.0483 8.43541 12.3142 8.39686 12.5958C8.37918 12.7243 8.36139 12.8553 8.34062 12.9897C8.33988 12.9949 8.33988 13.0002 8.34062 13.0054C8.34705 13.0525 8.35241 13.1023 8.35798 13.154C8.36944 13.2897 8.39086 13.4242 8.42209 13.5566C8.46823 13.7329 8.61198 13.8412 8.80654 13.8463H8.81984C8.9028 13.8491 8.98454 13.8253 9.05392 13.7782C9.1233 13.7311 9.17695 13.6631 9.20746 13.5833C9.257 13.4548 9.28924 13.3199 9.30333 13.1824C9.32126 13.0359 9.33507 12.8872 9.34849 12.7432C9.36683 12.5459 9.38584 12.3418 9.41547 12.1436C9.44447 11.9281 9.51599 11.721 9.6256 11.5352C9.73521 11.3494 9.88057 11.1888 10.0527 11.0635C10.152 10.9891 10.2526 10.9166 10.3532 10.8441C10.5413 10.7086 10.7358 10.5684 10.9182 10.4176L10.9616 10.3817C11.2818 10.1169 11.6127 9.84311 11.9005 9.5338C12.3017 9.11086 12.5439 8.55411 12.5837 7.96338C12.6587 6.83207 12.2336 5.93633 11.3201 5.30106C10.2997 4.59148 9.18429 4.54935 7.91056 5.17268C7.64228 5.30877 7.41896 5.5238 7.26868 5.79072C7.15502 5.98342 7.17161 6.19278 7.30752 6.27903Z" fill="black"/>
<path d="M8.97262 14.2686C8.79564 14.2679 8.65353 14.3177 8.55597 14.418C8.45735 14.5192 8.40723 14.6656 8.40703 14.8534C8.406 14.9435 8.42233 15.0328 8.45506 15.1163C8.4878 15.1997 8.53631 15.2756 8.59772 15.3395C8.69472 15.4396 8.82592 15.4962 8.96298 15.4971C8.96754 15.4971 8.97202 15.4971 8.97653 15.4971C9.26703 15.4891 9.5395 15.1908 9.54816 14.8714C9.55042 14.7941 9.5376 14.7171 9.51042 14.645C9.48324 14.5729 9.44226 14.5072 9.38997 14.4518C9.33588 14.3939 9.27103 14.3478 9.19933 14.3163C9.12762 14.2848 9.05053 14.2686 8.97262 14.2686Z" fill="black"/>
</g>
<defs>
<clipPath id="clip0_7_588">
<rect width="5.47057" height="10.7814" fill="white" transform="translate(7.17163 4.71686)"/>
</clipPath>
</defs>
</svg>
