<svg width="20" height="20" viewBox="0 0 20 20" fill="none" xmlns="http://www.w3.org/2000/svg">
<g clip-path="url(#clip0_7_593)">
<path d="M12.3878 19.8785C10.5325 19.8785 8.67719 19.8686 6.82205 19.8817C5.33053 19.8922 3.83967 19.9396 2.34831 19.951C1.92874 19.951 1.50974 19.9164 1.09484 19.8478C0.201113 19.7068 -0.154478 19.1255 0.143149 18.1876C0.346672 17.5594 0.612639 16.9578 0.936212 16.3936C2.30714 13.9772 4.30187 12.4081 6.69247 11.3972C7.99028 10.837 9.36965 10.539 10.7641 10.5174C12.8488 10.4975 14.768 11.0785 16.4068 12.5887C17.5257 13.6055 18.4401 14.8662 19.0921 16.291C19.2736 16.6892 19.4781 17.0781 19.6235 17.4919C19.7631 17.874 19.8607 18.2729 19.9142 18.6803C19.9858 19.2906 19.6762 19.6953 19.1213 19.772C18.7342 19.8298 18.3442 19.8619 17.9535 19.8682C16.0983 19.8775 14.243 19.8726 12.3878 19.8726V19.8785ZM18.4828 18.3889C18.49 18.324 18.4894 18.2583 18.481 18.1936C17.8901 16.5085 17.0735 14.9854 15.812 13.7924C14.8388 12.872 13.7471 12.2097 12.4503 12.0301C10.956 11.8232 9.47532 11.8665 8.01476 12.3184C5.25154 13.1733 3.04687 14.8562 1.53713 17.5692C1.36535 17.8778 1.22899 18.2101 1.07103 18.5413C1.11903 18.5701 1.16913 18.5946 1.22078 18.6145C1.73773 18.7393 2.25324 18.6659 2.77459 18.6339C3.85807 18.5672 4.94452 18.5385 6.02986 18.5324C9.58066 18.5123 13.1315 18.5138 16.6824 18.4952C17.2734 18.4917 17.8635 18.427 18.483 18.3889H18.4828Z" fill="black"/>
<path d="M10.3631 0.0652375C11.7925 0.027005 12.9867 0.776195 13.8934 2.13777C14.1071 2.4588 14.365 2.75684 14.5211 3.10894C14.8699 3.89591 15.1589 4.70437 14.9735 5.62288C14.7994 6.48539 14.5725 7.31593 14.0667 8.02291C13.1673 9.27872 12.0206 10.0551 10.5551 10.2482C9.23596 10.422 7.98166 10.2074 6.81056 9.52584C5.60437 8.8239 4.9181 7.68801 4.66895 6.22857C4.29395 4.03155 5.34065 2.06113 6.99218 1.0135C7.99158 0.379363 9.07079 0.0597492 10.3631 0.0652375ZM13.4951 4.52885C13.5606 3.97499 13.3588 3.53267 13.046 3.1296C12.9239 2.97229 12.8136 2.80354 12.6866 2.65145C12.2267 2.10094 11.7024 1.66541 11.0049 1.55015C10.0271 1.37246 9.02334 1.51695 8.1204 1.9654C6.99175 2.53535 6.1498 3.40428 5.95582 4.84912C5.72955 6.53461 6.52165 8.04298 7.93038 8.54094C8.77452 8.83067 9.66588 8.9158 10.5429 8.79043C11.7418 8.63974 13.1531 7.28642 13.3437 5.8974C13.406 5.44308 13.4453 4.98486 13.4951 4.5284V4.52885Z" fill="black"/>
</g>
<defs>
<clipPath id="clip0_7_593">
<rect width="20" height="20" fill="white"/>
</clipPath>
</defs>
</svg>
